<?xml version="1.0" encoding="UTF-8" standalone="no"?>
<svg width="32px" height="32px" viewBox="0 0 32 32" version="1.1" xmlns="http://www.w3.org/2000/svg" xmlns:xlink="http://www.w3.org/1999/xlink">
    <!-- Generator: Sketch 44.1 (41455) - http://www.bohemiancoding.com/sketch -->
    <title>folder 12</title>
    <desc>Created with Sketch.</desc>
    <defs></defs>
    <g id="Page-2-Copy" stroke="none" stroke-width="1" fill="none" fill-rule="evenodd">
        <g id="226" stroke="#979797">
            <path d="M30,10 L32,10 L32,29.9950534 C32,31.1029738 31.103789,32 29.9982567,32 L2.00174332,32 C0.889261723,32 0,31.1023548 0,29.9950534 L0,10 L1.99984447,10 C1.9994626,15.4225254 1.99871742,30 2.00174332,30 C2.00174332,30 30,29.9988104 30,29.9950534 L30,10 L30,10 Z M13.3797894,1.7050473 C12.4138242,0.739082077 11.6253905,0 10.2603472,0 L3.00018136,0 C1.34396721,0 0,1.34283309 0,2.9973917 L0,10.0026083 C0,10.0026083 1.34325689,10 2.99161703,10 L29.008383,10 C30.6603133,10 32,10.0020869 32,10.0020869 L32,5.99791312 C32,4.34240254 30.6611597,3 29.0065851,3 L16.2539435,3 C15.4204464,3 14.1454497,2.47070759 13.5554813,1.88073914 L13.3797894,1.7050473 L13.3797894,1.7050473 Z M30,5.99791312 L30,8.00208688 L2,8.0026083 L2,2.9973917 C2,2.44778073 2.44815892,2 3.00018136,2 L10.2603472,2 C11.0955442,2 11.3750999,2.52878487 11.9655759,3.11926086 L12.1412677,3.2949527 C13.1059108,4.25959584 14.8894484,5 16.2539435,5 L29.0065851,5 C29.5553988,5 30,5.44578415 30,5.99791312 L30,5.99791312 Z" id="Rectangle-1093" stroke="none" fill="#95909E" fill-rule="nonzero"></path>
            <path d="M15,21 L9.04653995,21 C8.50347894,21 8.0546875,20.5522847 8.0546875,20 C8.0546875,19.4438648 8.50126139,19 9.05213821,19 L15,19 L15,13.04654 C15,12.5034789 15.4477153,12.0546875 16,12.0546875 C16.5561352,12.0546875 17,12.5012614 17,13.0521382 L17,19 L23.0025493,19 C23.5568889,19 24,19.4477153 24,20 C24,20.5561352 23.5526341,21 23.0007803,21 L21.543335,21 L17,21 L17,27.0025493 C17,27.5568889 16.5522847,28 16,28 C15.4438648,28 15,27.5526341 15,27.0007803 L15,25.543335 L15,21 L15,21 Z" id="Rectangle-348" stroke="none" fill="#979797" fill-rule="evenodd"></path>
        </g>
    </g>
</svg>